<svg xmlns="http://www.w3.org/2000/svg" width="40" height="40"><defs><clipPath id="a"><path data-name="長方形 193" fill="none" d="M0 0h40v40H0z"/></clipPath></defs><g data-name="グループ 1467" clip-path="url(#a)"><path data-name="パス 1703" d="M31.081 40H9.046A9.046 9.046 0 010 30.954V8.919A9.046 9.046 0 019.046-.127h22.035a9.046 9.046 0 019.046 9.046v22.035A9.046 9.046 0 0131.081 40" fill="#06c755"/><path data-name="パス 1704" d="M33.438 18.044c0-5.986-6-10.857-13.378-10.857S6.681 12.06 6.681 18.044c0 5.367 4.76 9.861 11.189 10.711.436.094 1.029.287 1.179.66a2.747 2.747 0 01.043 1.21l-.191 1.145c-.058.338-.269 1.323 1.159.721s7.7-4.537 10.511-7.767a9.66 9.66 0 002.868-6.68" fill="#fff"/><path data-name="パス 1705" d="M28.987 21.503h-3.759a.255.255 0 01-.255-.255v-5.834a.255.255 0 01.255-.255h3.759a.256.256 0 01.255.255v.949a.255.255 0 01-.255.255h-2.554v.985h2.554a.256.256 0 01.255.255v.949a.255.255 0 01-.255.256h-2.554v.985h2.554a.256.256 0 01.255.255v.949a.255.255 0 01-.255.255" fill="#06c755"/><path data-name="パス 1706" d="M15.084 21.503a.255.255 0 00.255-.255v-.95a.256.256 0 00-.255-.255H12.53v-4.634a.256.256 0 00-.255-.255h-.949a.255.255 0 00-.255.255v5.834a.255.255 0 00.255.255h3.759z" fill="#06c755"/><path data-name="パス 1707" d="M17.346 15.153h-.949a.255.255 0 00-.255.255v5.839a.255.255 0 00.255.255h.949a.255.255 0 00.255-.255v-5.839a.255.255 0 00-.255-.255" fill="#06c755"/><path data-name="パス 1708" d="M23.805 15.153h-.949a.255.255 0 00-.255.255v3.468l-2.671-3.608a.285.285 0 00-.021-.026l-.015-.016-.014-.012-.007-.005-.014-.009h-.008l-.014-.008h-.008l-.015-.007h-1.046a.255.255 0 00-.255.255v5.839a.255.255 0 00.255.255h.949a.255.255 0 00.255-.255v-3.467l2.675 3.612a.259.259 0 00.066.064l.016.01h.007l.012.006.013.005h.008l.018.006a.26.26 0 00.067.009h.944a.255.255 0 00.255-.255v-5.861a.255.255 0 00-.255-.255" fill="#06c755"/></g></svg>