<svg version="1.1" id="レイヤー_1" xmlns="http://www.w3.org/2000/svg" xmlns:xlink="http://www.w3.org/1999/xlink" x="0" y="0" width="264.376" height="270" xml:space="preserve"><style>.st0{fill:#261b19}.st1{fill:#fff}</style><path class="st0" d="M42.014 269.543H28.765l-4.564-11.956h-1.026v11.956H11.103v-33.657h17.103c3.74 0 6.595.692 8.729 2.114 2.761 1.743 4.357 4.833 4.357 8.464 0 4.059-1.656 6.887-5.191 8.821l5.913 14.258zm-11.629-2.352h8.108l-5.419-13.066 1.033-.472c3.388-1.548 4.834-3.698 4.834-7.19 0-2.848-1.167-5.153-3.286-6.49-1.76-1.173-4.189-1.735-7.449-1.735H13.454v28.954h7.369v-11.956h4.997l4.565 11.955zm-4.872-16.312h-4.69v-8.331h5.055c.978 0 2.194 0 3.264.534 1.337.7 2.156 2.079 2.156 3.608.001 2.78-1.946 4.189-5.785 4.189zm-2.338-2.352h2.338c3.168 0 3.433-.908 3.433-1.836 0-.652-.336-1.231-.875-1.514-.554-.277-1.387-.277-2.193-.277h-2.703v3.627zm53.299 21.017H50.62v-33.658h25.855v9.562H62.373v2.212h11.409v9.334H62.373v2.713h14.102v9.837zm-23.502-2.352h21.151v-5.133H60.021v-7.417H71.43v-4.631H60.021v-6.915h14.102v-4.858H52.972v28.954zm62.883 2.352h-9.684l-9.301-15.156v15.156H86.716v-33.658h10.922l8.379 13.951-.316-4.059v-9.892h10.155v33.658zm-8.368-2.352h6.016v-28.954h-5.451v7.494l.723 9.165-1.539 1.539-10.929-18.199h-7.239v28.954h5.451v-13.428c0-2.087-.186-3.122-.611-4.988l-.244-.98 1.715-1.744 3.492 7.098 8.616 14.043zm35.29 2.352h-11.479v-23.776h-6.572v-9.882h24.485v9.882h-6.434v23.776zm-9.127-2.352h6.775v-23.776h6.434v-5.178h-19.781v5.178h6.572v23.776zm54.911 2.351h-12.297l-1.779-6.16h-6.601l-1.917 6.16H155.7l10.452-33.657h11.861l10.548 33.657zm-10.527-2.352h7.326l-9.075-28.954h-8.401l-8.99 28.954h5.341l1.917-6.16h10.103l1.779 6.16zm-2.755-10.654h-8.217l4.108-14.599 4.109 14.599zm-5.111-2.352h2.005l-1.003-3.564-1.002 3.564zm51.097 15.359h-24.302v-33.658h12.026v23.64h12.275v10.018zm-21.95-2.352h19.598v-5.315h-12.275v-23.64h-7.323v28.955zM243.178 270c-8.041 0-13.597-3.801-15.243-10.43l-.303-1.219 9.558-1.716c-4.056-1.443-7.693-4.085-7.693-9.808 0-3.46 1.729-6.835 4.513-8.808 3.074-2.141 6.954-2.59 9.67-2.59 6.713 0 11.836 3.159 13.705 8.451l.408 1.158-8.83 2.691c1.39.374 2.76.848 4.064 1.522 3.368 1.81 5.29 5.099 5.29 9.031.001 8.095-7.603 11.718-15.139 11.718zm-12.598-9.789c2.288 6.436 8.786 7.437 12.598 7.437 4.75 0 12.788-1.973 12.788-9.366 0-3.083-1.433-5.552-4.035-6.95-2.264-1.17-4.934-1.691-7.516-2.195l-1.39-.282c-1.309-.282-4.034-.868-4.034-3.306 0-1.965 1.639-3.184 4.279-3.184 2.696 0 4.567.953 5.689 2.906l5.729-1.745c-2.548-5.158-8.46-5.745-11.008-5.745-2.378 0-5.753.376-8.318 2.162-2.163 1.534-3.513 4.174-3.513 6.884 0 6.208 5.398 7.759 11.918 9.022l.203.039c1.487.283 4.583.872 4.583 3.672 0 .93-.475 3.093-4.873 3.093-3.211 0-5.381-1.22-6.465-3.633l-6.635 1.191zm8.482-2.994l.041.139c.601 2.036 2.012 2.945 4.577 2.945 1.484 0 2.521-.305 2.521-.741 0-.714-.98-1.039-2.671-1.361l-.21-.04c-1.31-.254-2.78-.538-4.258-.942zm4.207-12.5c-.322 0-1.927.04-1.927.832 0 .538 1.471.854 2.177 1.007l1.346.273c.814.159 1.636.319 2.457.501l-.082-.21c-.669-1.706-1.819-2.403-3.971-2.403z"/><path class="st1" d="M28.52 267.312l-4.564-11.957h-3.012v11.957h-9.721v-31.305H27.15c2.738 0 5.75.365 8.077 1.917 2.602 1.642 3.834 4.427 3.834 7.484 0 4.107-1.825 6.572-5.521 8.26l5.659 13.645H28.52zm-4.062-18.664c2.099 0 4.609-.319 4.609-3.012 0-1.05-.548-2.055-1.506-2.556-.821-.411-1.825-.411-2.738-.411h-3.879v5.978h3.514zm49.785 18.665H50.741v-31.307h23.502v7.211H60.142v4.563h11.409v6.983H60.142v5.065h14.101zm31.531 0l-8.99-14.649L94 247.005l-.091.092.091.365c.457 2.008.639 3.102.639 5.248v14.603h-7.803v-31.306h9.081l10.497 17.478.091-.091-.684-8.671v-8.716h7.803v31.306h-7.85zm34.772 0h-9.127v-23.776h-6.572v-7.531h22.133v7.531h-6.434zm33.768-6.161h-8.352l-1.917 6.16h-7.803l9.72-31.305h10.131l9.812 31.305h-9.812l-1.779-6.16zm-1.643-6.846l-2.556-9.082-2.555 9.082h5.111zm46.363 13.007h-21.951v-31.307h9.675v23.64h12.276zm17.886-10.679c.821 2.784 2.921 3.788 5.705 3.788 1.232 0 3.696-.183 3.696-1.917 0-1.917-2.419-2.282-3.834-2.555-5.887-1.141-12.87-2.738-12.87-10.177 0-3.057 1.506-6.069 4.016-7.849 2.555-1.78 5.887-2.373 8.991-2.373 5.431 0 10.679 2.236 12.595 7.666l-7.941 2.419c-.913-2.328-2.647-3.149-5.065-3.149-1.278 0-3.103.364-3.103 2.007 0 1.643 2.281 1.963 3.468 2.236 2.967.593 6.116 1.096 8.854 2.511 3.058 1.643 4.655 4.563 4.655 7.985 0 7.53-7.485 10.542-13.964 10.542-6.572 0-12.413-2.738-14.102-9.538l8.899-1.596z"/><path d="M27.464 266.257L22.9 254.3h-3.012v11.957h-9.721v-31.305h15.927c2.738 0 5.75.365 8.077 1.917 2.602 1.642 3.834 4.427 3.834 7.484 0 4.107-1.825 6.572-5.521 8.26l5.659 13.645H27.464zm-4.062-18.665c2.099 0 4.609-.319 4.609-3.011 0-1.05-.548-2.055-1.506-2.556-.821-.411-1.825-.411-2.738-.411h-3.879v5.978h3.514zm49.785 18.665H49.685v-31.306h23.502v7.21H59.086v4.564h11.409v6.982H59.086v5.065h14.101zm31.531 0l-8.99-14.649-2.784-5.659-.091.092.091.365c.457 2.008.639 3.102.639 5.248v14.603H85.78v-31.306h9.081l10.497 17.478.091-.091-.684-8.671v-8.716h7.803v31.306h-7.85zm34.772 0h-9.127v-23.776h-6.571v-7.53h22.133v7.53h-6.435zm33.769-6.161h-8.352l-1.917 6.16h-7.803l9.72-31.305h10.131l9.812 31.305h-9.812l-1.779-6.16zm-1.644-6.846l-2.556-9.082-2.555 9.082h5.111zm46.363 13.007h-21.951v-31.306h9.675v23.639h12.276zm17.886-10.679c.821 2.784 2.921 3.788 5.705 3.788 1.232 0 3.696-.183 3.696-1.917 0-1.917-2.419-2.282-3.834-2.555-5.887-1.141-12.87-2.738-12.87-10.177 0-3.057 1.506-6.069 4.016-7.849 2.555-1.78 5.887-2.373 8.991-2.373 5.431 0 10.679 2.236 12.595 7.666l-7.941 2.419c-.913-2.328-2.647-3.149-5.065-3.149-1.278 0-3.103.364-3.103 2.007 0 1.643 2.281 1.963 3.468 2.236 2.967.593 6.116 1.096 8.854 2.511 3.058 1.642 4.655 4.563 4.655 7.985 0 7.53-7.485 10.542-13.964 10.542-6.572 0-12.413-2.738-14.102-9.538l8.899-1.596z" fill="#00a0e8"/><defs><path id="SVGID_1_" d="M46.35 25.833c-5.524 14.501-8.07 34.784-6.403 57.041h184.482c1.667-22.257-.879-42.54-6.404-57.041l-85.837-22.65-85.838 22.65z"/></defs><clipPath id="SVGID_00000060015973833281355710000016588057988067282318_"><use xlink:href="#SVGID_1_" overflow="visible"/></clipPath><radialGradient id="SVGID_00000125569432310712651270000004945172352196234921_" cx="-287.841" cy="432.02" r=".802" gradientTransform="scale(139.8252 75.2468) rotate(-90 73.06 -359.905)" gradientUnits="userSpaceOnUse"><stop offset="0" stop-color="#fcf39a"/><stop offset=".681" stop-color="#fff"/><stop offset="1" stop-color="#0096df"/></radialGradient><path clip-path="url(#SVGID_00000060015973833281355710000016588057988067282318_)" fill="url(#SVGID_00000125569432310712651270000004945172352196234921_)" d="M38.281 3.182h187.815v79.691H38.281z"/><defs><path id="SVGID_00000098936397716524678500000002018843326274790325_" d="M49.768 130.353c12.859 37.03 38.65 72.417 82.42 90.624 43.771-18.207 69.561-53.594 82.421-90.624H49.768z"/></defs><clipPath id="SVGID_00000005240016091540947980000008583958952728038071_"><use xlink:href="#SVGID_00000098936397716524678500000002018843326274790325_" overflow="visible"/></clipPath><linearGradient id="SVGID_00000052809306948408505610000008266417222824643729_" gradientUnits="userSpaceOnUse" x1="-286.922" y1="431.088" x2="-286.125" y2="431.088" gradientTransform="rotate(-90 6189.677 -29976.257) scale(83.5878)"><stop offset="0" stop-color="#009eb8"/><stop offset="0" stop-color="#009eb8"/><stop offset=".162" stop-color="#30b0c5"/><stop offset=".47" stop-color="#88d2de"/><stop offset=".723" stop-color="#c8eaf0"/><stop offset=".905" stop-color="#f0f9fb"/><stop offset="1" stop-color="#fff"/></linearGradient><path clip-path="url(#SVGID_00000005240016091540947980000008583958952728038071_)" fill="url(#SVGID_00000052809306948408505610000008266417222824643729_)" d="M49.768 130.353h164.84v90.624H49.768z"/><path class="st1" d="M.781 42.539s79.995 20.449 132.684 20.449 129.578-22.331 129.578-22.331v117.74s-74.066-21.795-129.578-21.795S2.192 159.339 2.192 159.339L.781 42.539z"/><path class="st0" d="M226.548 47.502c-1.178-8.251-3.05-15.944-5.648-22.764l-.563-1.477L132.188 0l-88.15 23.261-.563 1.477c-2.604 6.836-4.478 14.548-5.656 22.82A343.196 343.196 0 01.756 34.646v8.666a379.168 379.168 0 0038.559 11.573c60.631 14.781 124.806 14.79 185.441.025a379.013 379.013 0 0038.657-11.598v-8.666a343.386 343.386 0 01-36.865 12.856zM77.804 56.449a343.778 343.778 0 01-17.822-3.345c6.356-1.474 12.257-3.628 18.003-5.893l-.181 9.238zm18.342 2.427a343.482 343.482 0 01-11.774-1.446l.251-12.869c3.912-1.558 7.784-3.047 11.748-4.314l-.225 18.629zm18.341 1.437a342.853 342.853 0 01-11.763-.803l.255-21.109c3.744-.885 7.633-1.506 11.765-1.748l-.257 23.66zm6.584.273l.261-24.055h21.711l.262 24.049a343.39 343.39 0 01-22.234.006zm28.817-.284l-.257-23.648c4.13.242 8.017.862 11.76 1.746l.259 21.091a342.83 342.83 0 01-11.762.811zm18.341-1.448L168 40.246c3.963 1.266 7.833 2.755 11.744 4.312l.257 12.843a343.422 343.422 0 01-11.772 1.453zm-22.398-28.909h-27.286c-15.175 0-27.272 4.851-38.97 9.542-11.382 4.564-22.255 8.901-35.689 8.945 1.032-7.214 2.623-13.969 4.797-20.032l83.505-22.035L215.693 28.4c2.174 6.066 3.766 12.823 4.798 20.041-13.439-.043-24.307-4.39-35.691-8.955-11.697-4.69-23.793-9.541-38.969-9.541zm40.738 26.47l-.184-9.208c5.717 2.254 11.585 4.4 17.904 5.875a343.282 343.282 0 01-17.72 3.333zM.757 157.453v8.666a343.157 343.157 0 0153.302-17.132c5.948 12.606 13.242 24.125 21.839 34.383 14.962 17.853 33.503 31.462 55.108 40.448l1.182.491 1.182-.491c21.605-8.986 40.146-22.595 55.108-40.448 8.587-10.246 15.867-21.754 21.81-34.342a343.163 343.163 0 0153.126 17.091v-8.666c-84.089-30.239-178.569-30.239-262.657 0zm131.431 60.186c-37.833-16.124-59.54-44.117-71.988-70.026a343.222 343.222 0 01143.961.042c-12.451 25.897-34.161 53.869-71.973 69.984z"/><path class="st0" d="M6.378 128.498c1.301-.227 2.605-.45 3.911-.67V72.936a601.21 601.21 0 01-3.911-.671V51.176a416.348 416.348 0 0035.721 9.184 371.846 371.846 0 008.059 12.603v21.934h-.014c-.667.894-1.334 1.797-2 2.709.671.931 1.343 1.852 2.015 2.765v27.428a370.623 370.623 0 00-8.059 12.583 416.698 416.698 0 00-35.721 9.18v-21.064zm31.7-45.631a362.11 362.11 0 01-3.997-6.365 681.682 681.682 0 01-11.951-1.684v12.777c3.966.297 7.95.578 11.951.842a311.807 311.807 0 013.997-5.57m0 35.03v-5.828a324.618 324.618 0 01-3.997-5.72c-4.001.132-7.985.273-11.951.421v19.175c3.966-.594 7.95-1.155 11.951-1.683a362.11 362.11 0 013.997-6.365m16.11 4.002c1.347-.139 2.695-.274 4.045-.406V79.271c-1.35-.132-2.698-.267-4.045-.407V62.725a433.123 433.123 0 0020.33 3.175v14.778a684.871 684.871 0 01-4.075-.318v40.043c1.357-.109 2.716-.216 4.075-.318v14.763a433.111 433.111 0 00-20.33 3.173v-16.122zm24.422 2.73V76.136c2.728-3 5.459-5.923 8.194-8.792 8.205.847 16.44 1.462 24.689 1.847a724.135 724.135 0 008.252 9.143v13.221c-4.125-.033-8.249-.082-12.369-.147V86.93a640.907 640.907 0 01-4.127-4.635c-2.746-.103-5.49-.22-8.231-.352a622.303 622.303 0 00-4.117 4.459v27.959a599.96 599.96 0 004.117 4.459c2.741-.132 5.485-.249 8.231-.352a620.315 620.315 0 014.127-4.635v-4.475c-2.752.044-5.503.095-8.252.154V95.821c6.862.073 13.739.124 20.62.151v26.46a707.767 707.767 0 00-8.252 9.127 440.43 440.43 0 00-24.689 1.845 508.807 508.807 0 01-8.193-8.775m45.266-2.266v-17.585c4.127-.011 8.255-.014 12.382-.008v8.776c1.379 1.471 2.758 2.946 4.137 4.429 2.753.03 5.506.073 8.256.132 1.378-1.45 2.755-2.903 4.132-4.363V82.556c-2.754.073-5.51.132-8.267.177V69.494a440.413 440.413 0 0020.62-1.062v54.76c-2.744 2.894-5.49 5.749-8.237 8.584a444.567 444.567 0 00-24.764-.696 2409.84 2409.84 0 00-8.259-8.717m45.376 1.063V77.339a443.976 443.976 0 008.215-10.006 434.436 434.436 0 0024.507-3.239 337.329 337.329 0 018.111 9.39v53.796a336.315 336.315 0 01-8.111 9.373 434.307 434.307 0 00-24.507-3.237 440.51 440.51 0 00-8.215-9.99m28.66-7.772V85.109a384.327 384.327 0 00-4.082-4.757c-2.719.22-5.443.426-8.169.616a415.141 415.141 0 01-4.102 5.067v28.693a413.205 413.205 0 014.102 5.066 755.9 755.9 0 018.169.617 369.056 369.056 0 004.082-4.757m28.282 8.105c1.339.169 2.676.342 4.011.518v-17.924a849.933 849.933 0 00-10.039-28.613c-2.008.236-4.021.464-6.037.684v-16.47a423.129 423.129 0 0020.062-4.335v18.328c-.663.092-1.328.182-1.992.272a849.963 849.963 0 013.994 11.8 992.798 992.798 0 003.969-12.924c-.661.097-1.322.194-1.983.289V56.636a413.28 413.28 0 0019.725-5.494v21.104c-1.956.341-3.917.675-5.884 1a1026.223 1026.223 0 01-9.865 33.529v19.188c1.319.199 2.635.399 3.95.605v19.62a417.483 417.483 0 00-19.911-4.913v-17.516zM99.505 177.575c1.75-.444 3.505-.853 5.266-1.227.549 2.107 1.1 4.278 1.653 6.512l.042-.004c.626-2.34 1.25-4.749 1.874-7.217a138.19 138.19 0 015.164-.855l.088 13.422-3.802.012-.061-9.475-.042.006a521.592 521.592 0 01-2.537 9.479c-.768.002-1.535.006-2.302.009a442.43 442.43 0 00-2.414-8.684l-.041.007.026 8.687-2.914.014v-10.686m16.006-3.069c1.269-.167 2.539-.315 3.811-.446l.077 14.132-3.802.009-.086-13.695m8.471 8.029a448.854 448.854 0 00-3.812-8.559c1.328-.128 2.658-.237 3.989-.326a797.922 797.922 0 012.015 5.643c.793-1.946 1.587-3.905 2.383-5.867 1.134-.04 2.268-.065 3.402-.077-1.395 2.964-2.783 5.942-4.167 8.896l.014 5.935-3.802.004-.022-5.649m11.145-9.181c1.673.022 3.346.075 5.017.158 1.062 4.943 2.117 9.847 3.167 14.673l-3.845-.004c-.194-.991-.388-1.985-.584-2.979-1.163-.01-2.327-.018-3.49-.022l-.658 2.997-3.148.001c1.173-4.941 2.353-9.898 3.541-14.824m.797 9.208c.812.006 1.623.015 2.435.027l-1.091-6.035-.042-.001c-.435 1.998-.869 4.002-1.302 6.009m8.233-8.791c1.273.101 2.546.219 3.817.356l-.034 6.064a.59.59 0 00.042.002 179.59 179.59 0 013.717-5.616c1.247.168 2.492.354 3.736.557a108.96 108.96 0 00-3.363 3.976 446.237 446.237 0 003.215 9.1l-3.718-.01a598.603 598.603 0 01-2.033-6.013l-.022-.001c-.533.7-1.065 1.411-1.599 2.133l-.022 3.872-3.802-.006c.023-4.804.045-9.609.066-14.414m17.209 2.231c4.438 1.041 5.784 4.243 5.789 6.915.002 2.689-1.369 5.477-5.851 5.553-4.479.055-5.828-3.421-5.807-6.787.02-3.349 1.422-6.66 5.869-5.681m-.051 10.244c1.751.057 1.756-1.533 1.765-3.82.009-2.284.016-3.883-1.725-4.2-1.743-.309-1.753 1.406-1.767 3.831-.014 2.428-.024 4.133 1.727 4.189m-52.52 4.217c.974.014 1.949.029 2.925.041l-.515 8.427-2.41-1.579v-6.889zm5.445 7.137c.334 1.034.706 1.9 1.796 2.39.65.29 1.219.061 1.265-.517.146-2.347-4.884-3.012-4.601-6.53.086-1.306 1.923-2.536 3.939-2.604 1.957-.028 3.33 1.184 3.72 2.883-.808.301-1.615.571-2.418.801-.251-.759-.64-1.413-1.483-1.491-.502-.046-1.026.19-1.076.805-.148 1.544 5.099 2.087 4.834 6.247-.187 2.757-3.192 3.483-5.386 2.208-1.898-1.071-3.038-2.685-2.904-4.481.747.163 1.522.256 2.314.289m7.486-6.995c.979.006 1.959.013 2.939.018l-.62 11.84c1.417.706 2.376 1.075 4.007 1.611l-.553 2.618a45.443 45.443 0 01-6.692-2.583l.919-13.504m9.686.036c1.286.002 2.571.001 3.857-.002.919 5.095 2.185 11.127 3.262 15.984-1.08.604-2.158.94-3.477 1.241-.184-1.022-.415-3.948-.592-4.976-.974.039-1.949.047-2.925.023-.191 1.033-.364 3.826-.561 4.853-1.159-.234-2.078-.403-2.878-.705 1.137-4.931 2.361-11.294 3.314-16.418m.581 9.555c.668.008 1.336.004 2.004-.013a508.777 508.777 0 01-.924-6.255h-.033a487.39 487.39 0 01-1.047 6.268m6.364-9.564l2.45-.01c1.253 2.565 2.549 4.974 3.852 7.13l.033-.007-.506-7.144 2.35-.019c.325 4.111.651 8.221.978 12.332a34.61 34.61 0 01-2.386.969c-1.359-2.04-2.723-4.377-4.048-6.91l-.033.004c.033-.004.323 4.715.683 7.936-.66.403-1.758 1.107-2.758 1.477-.192-4.961-.424-10.798-.615-15.758m9.678-.064c1.06-.01 2.118-.022 3.177-.033 4.306-.116 5.226 1.696 5.285 3.641.054 1.757-.299 3.288-2.577 4.999-1.144.86-3.779 2.437-4.927 3.026l-.958-11.633m3.592 8.246l.303-.162c1.876-1.103 1.735-2.953 1.673-4.073-.062-.981-.339-2.473-2.252-2.292l-.241.029.517 6.498"/><path class="st1" d="M238.333 193.242s-6.949 2.809-8.575 8.871c0 0 7.393-3.844 10.349-3.549 2.957.296 7.836 1.627 9.906 2.07 2.07.444 4.287-.443 3.991-2.217-.295-1.774-2.07-5.322-4.435-5.47-2.365-.148-11.236.295-11.236.295m6.062-18.333l-10.645.296-11.088 1.922s-4.879 3.549-4.14 7.836c.739 4.288 1.444 4.806 1.444 4.806s1.069-2.145 3.878-2.293c2.81-.148 3.401 0 6.95.887 3.548.887 5.824.899 6.653-.296.828-1.194 6.948-13.158 6.948-13.158"/><path class="st1" d="M244.395 174.909s-3.451 7.659-5.274 9.965c-1.823 2.307-3.302 5.263-5.815 4.377-2.513-.887-6.323-2.937-9.463-1.775-3.139 1.163-3.844 1.775-2.956 2.81.887 1.035 4.287 2.809 6.653 2.956 2.366.148 10.793-.739 15.376-.739s9.019 1.478 10.053 3.696l1.035 2.217s5.618-4.14 7.54-9.314c1.922-5.175 2.217-8.131-.444-9.758-2.661-1.627-7.392-3.696-10.053-3.992-2.66-.295-6.652-.443-6.652-.443m-224.414 0s3.451 7.659 5.274 9.965c1.823 2.307 3.302 5.263 5.815 4.377 2.513-.887 6.323-2.937 9.463-1.775 3.139 1.163 3.844 1.775 2.956 2.81-.887 1.035-4.287 2.809-6.653 2.956-2.366.148-10.793-.739-15.376-.739s-9.019 1.478-10.053 3.696l-1.035 2.217s-5.618-4.14-7.54-9.314c-1.922-5.175-2.217-8.131.443-9.758 2.661-1.627 7.393-3.696 10.054-3.992 2.659-.295 6.652-.443 6.652-.443"/><path class="st1" d="M26.042 193.242s6.949 2.809 8.575 8.871c0 0-7.393-3.844-10.349-3.549-2.957.296-7.836 1.627-9.906 2.07-2.07.444-4.287-.443-3.991-2.217.295-1.774 2.07-5.322 4.435-5.47 2.365-.148 11.236.295 11.236.295m-6.061-18.333l10.645.296 11.088 1.922s4.879 3.549 4.14 7.836c-.739 4.288-1.444 4.806-1.444 4.806s-1.069-2.145-3.878-2.293c-2.81-.148-3.401 0-6.95.887-3.548.887-5.824.899-6.653-.296-.828-1.194-6.948-13.158-6.948-13.158"/><path class="st0" d="M41.176 176.362c2.188 1.48 4.786 4.695 5.318 8.26.329 2.201-.196 4.229-1.519 5.867-3.75 4.642-12.611 4.375-24.722 3.493-3.136-.23-5.52.361-7.088 1.753-1.785 1.584-1.905 3.735-1.906 3.757l-.086 1.849-1.518-1.052c-6.219-4.34-10.258-12.504-9.581-16.633.927-5.666 8.37-7.744 11.525-8.374 5.364-1.071 14.239-.709 15.106-.669l.072 2.041-.056.003-.056-.002c-.041-.002-1.91-.087-4.434-.087-3.144 0-7.305.132-10.232.715-2.138.427-9.169 2.173-9.911 6.703-.568 3.47 3.072 9.943 7.484 13.664a7.821 7.821 0 012.203-3.411c1.997-1.793 4.9-2.563 8.626-2.292 11.114.811 19.865 1.123 22.986-2.74.967-1.198 1.333-2.638 1.087-4.282-.422-2.823-2.554-5.593-4.442-6.869l1.144-1.694z"/><path class="st0" d="M42.075 191.193c.126-.844-.113-1.465-.73-1.902-1.326-.939-4.041-.837-6.052.226-2.289 1.211-4.74 1.541-6.725.904-1.426-.458-2.52-1.37-3.167-2.642l-6.791-11.743 2.037-.423 6.564 11.222c.392.785 1.076 1.352 1.98 1.642 1.464.47 3.34.191 5.147-.765 2.712-1.434 6.231-1.472 8.186-.089.938.665 1.486 1.604 1.601 2.711.039.371-2.05.859-2.05.859"/><path class="st0" d="M21.421 178.941s-3.969-.744-10.584 2.976c0 0 6.78-1.985 11.08-.909l-.496-2.067zm1.241 2.894s-6.347.529-10.203 4.064c0 0 8.653-2.941 12.097-1.357l-1.894-2.707zm2.309 3.606s-5.262-.349-10.112 3.83c0 0 6.961-2.878 10.958-1.831l-.846-1.999zm10.256 17.91c-.233-1.63-.879-3.423-2.167-5.237-1.288-1.814-4.243-3.973-4.243-3.973l-5.593.006c3.376.233 4.138 1.387 6.406 3.064 2.077 1.535 3.228 3.255 3.867 4.531-1.398-1.131-3.432-2.697-7.98-3.692-2.038-.446-4.544-.561-7.735.549-2.249.784-4.377 1.383-5.198.563-1.463-1.463.409-3.394.409-3.394l-1.989-.234c-.996 1.306-2.282 3.862-.435 5.498 1.839 1.627 4.506 1.446 6.961.062 2.356-1.328 5.543-1.488 7.585-1.174 2.347.361 4.662 1.149 8.184 2.955 1.402.72 2.007 1.037 1.928.476"/><path class="st1" d="M132.188 146.555c-40.201 0-78.928 7.843-115.379 23.315l10.322 17.26c33.242-13.716 68.492-20.668 105.057-20.668"/><path class="st0" d="M26.707 188.409l-11.376-19.022 1.079-.458c36.575-15.525 75.528-23.397 115.778-23.397v2.042c-39.579 0-77.892 7.662-113.9 22.778l9.269 15.498c33.124-13.544 68.32-20.41 104.631-20.41v2.042c-36.34 0-71.554 6.928-104.667 20.59l-.814.337zm197.636-10.355c-1.888 1.276-4.02 4.046-4.443 6.87-.246 1.643.12 3.084 1.088 4.282 3.121 3.862 11.871 3.551 22.986 2.74 3.726-.27 6.629.499 8.626 2.293a7.813 7.813 0 012.203 3.41c4.412-3.72 8.051-10.194 7.484-13.664-.742-4.53-7.773-6.276-9.911-6.702-2.927-.584-7.089-.716-10.232-.716-2.525 0-4.392.085-4.434.087l-.056.002-.056-.003.072-2.041c.867-.039 9.743-.402 15.105.669 3.157.631 10.599 2.709 11.526 8.374.675 4.129-3.362 12.294-9.581 16.633l-1.518 1.052-.086-1.849c-.002-.022-.121-2.173-1.906-3.757-1.568-1.391-3.952-1.983-7.088-1.753-12.111.882-20.972 1.149-24.723-3.493-1.322-1.638-1.847-3.666-1.518-5.867.533-3.565 3.13-6.78 5.318-8.26l1.144 1.693z"/><path class="st0" d="M222.301 191.193c-.126-.844.113-1.465.73-1.902 1.326-.939 4.041-.837 6.052.226 2.289 1.211 4.74 1.541 6.725.904 1.426-.458 2.52-1.37 3.167-2.642l6.791-11.743-2.037-.423-6.564 11.222c-.392.785-1.076 1.352-1.98 1.642-1.464.47-3.34.191-5.147-.765-2.712-1.434-6.231-1.472-8.186-.089-.938.665-1.486 1.604-1.601 2.711-.039.371 2.05.859 2.05.859"/><path class="st0" d="M242.954 178.941s3.969-.744 10.584 2.976c0 0-6.78-1.985-11.08-.909l.496-2.067zm-1.24 2.894s6.347.529 10.203 4.064c0 0-8.653-2.941-12.097-1.357l1.894-2.707zm-2.31 3.606s5.262-.349 10.112 3.83c0 0-6.961-2.878-10.958-1.831l.846-1.999zm-10.255 17.91c.233-1.63.879-3.423 2.167-5.237 1.288-1.814 4.243-3.973 4.243-3.973l5.593.006c-3.376.233-4.138 1.387-6.406 3.064-2.077 1.535-3.228 3.255-3.867 4.531 1.398-1.131 3.432-2.697 7.98-3.692 2.038-.446 4.544-.561 7.735.549 2.249.784 4.377 1.383 5.198.563 1.463-1.463-.409-3.394-.409-3.394l1.989-.234c.996 1.306 2.282 3.862.435 5.498-1.839 1.627-4.506 1.446-6.961.062-2.356-1.328-5.543-1.488-7.585-1.174-2.347.361-4.662 1.149-8.184 2.955-1.403.72-2.008 1.037-1.928.476"/><path class="st1" d="M132.188 146.555c40.201 0 78.928 7.843 115.379 23.315l-10.322 17.26c-33.242-13.716-68.492-20.668-105.057-20.668"/><path class="st0" d="M237.668 188.409l-.814-.336c-33.112-13.662-68.327-20.59-104.667-20.59v-2.042c36.311 0 71.508 6.866 104.632 20.41l9.269-15.498c-36.009-15.115-74.322-22.778-113.9-22.778v-2.042c40.25 0 79.203 7.871 115.778 23.397l1.079.458-11.377 19.021zM26.919 170.803l3.758-1.441 3.411 5.453.03-.011-.904-6.414 3.654-1.401 4.037 10.516-2.686 1.029-2.982-7.769-.029.012 1.147 8.472-1.626.623-4.77-7.389-.029.012 3.084 8.035-2.059.788zm15.234-5.858c3.208-1.088 5.148 1.396 6.074 4.124.926 2.728.898 5.879-2.311 6.968-3.208 1.089-5.148-1.395-6.074-4.123-.925-2.728-.897-5.879 2.311-6.969m3.092 9.114c1.256-.426.757-1.895.045-3.994-.711-2.099-1.21-3.566-2.466-3.141-1.257.426-.758 1.895-.046 3.994.712 2.098 1.211 3.567 2.467 3.141m1.435-10.399l7.678-2.339.636 2.089-2.462.75 2.646 8.687-2.752.839-2.647-8.687-2.462.75zm12.138-3.784c3.27-.884 5.05 1.715 5.804 4.494.753 2.779.528 5.921-2.743 6.805-3.271.886-5.051-1.714-5.804-4.493-.753-2.779-.527-5.921 2.743-6.806m2.515 9.284c1.28-.347.875-1.843.296-3.98-.579-2.138-.985-3.634-2.265-3.287-1.281.345-.875 1.842-.296 3.98.58 2.138.985 3.634 2.265 3.287m2.985-10.509l4.17-.978c2.101-.493 3.944.083 4.449 2.239.271 1.155-.264 2.304-1.259 2.96l3.102 4.895-2.77.65-2.498-4.419-.933.218 1.113 4.744-2.801.657-2.573-10.966zm3.849 3.809l.545-.128c1.058-.249 1.667-.733 1.461-1.611-.268-1.139-1.176-1.025-2.11-.805l-.467.108.571 2.436zm10.902-3.019c-.149-.745-.594-1.994-1.613-1.791-1.191.238-1.031 1.932-.622 3.979.454 2.265.845 3.655 2.162 3.393 1.034-.207 1.102-1.091.888-2.484l2.488-.27c.484 2.42-.648 4.339-3.093 4.827-3.416.682-4.914-2.004-5.488-4.874-.531-2.652-.239-5.92 3.192-6.605 2.695-.538 4.262 1.021 4.718 3.302l-2.632.523zm6.247 1.844l-3.934-6.324 2.964-.492 2.208 4.124 1.056-4.666 2.523-.418-2.005 7.15.743 4.48-2.838.47zm11.277-4.665c-.1-.753-.464-2.029-1.494-1.892-1.203.159-1.154 1.861-.878 3.931.306 2.29.608 3.702 1.938 3.526 1.045-.14 1.17-1.018 1.047-2.422l2.5-.108c.326 2.446-.927 4.289-3.398 4.617-3.453.458-4.775-2.319-5.163-5.219-.357-2.681.145-5.925 3.614-6.386 2.724-.362 4.187 1.295 4.495 3.601l-2.661.352zm3.461-4.402l2.863-.293.941 9.225 3.879-.398.203 1.983-6.742.692zm7.89-.782l7.14-.523.16 2.178-4.271.313.166 2.272 2.869-.21.16 2.177-2.869.211.17 2.335 4.272-.313.166 2.272-7.14.523zm22.176 10.448c-.99.026-2.678-.344-3.385-1.117-.86.749-1.982 1.253-3.132 1.281-1.662.041-3.386-1.149-3.431-2.921-.041-1.613 1.162-2.672 2.409-3.321-.498-.731-1-1.636-1.023-2.538-.045-1.756 1.364-2.915 3.137-2.959 1.454-.037 3.086.666 3.131 2.437.032 1.265-1.171 2.341-2.146 2.983l1.32 1.597c.297-.293.621-1.362.722-1.776l2.089.439c-.065.603-.73 2.075-1.396 2.947.344.308 1.197.54 1.643.482l.062 2.466zm-6.477-4.522c-.358.373-.617.855-.604 1.377.013.506.521 1.031 1.081 1.017.352-.008.875-.116 1.108-.391l-1.585-2.003zm.397-4.504c.013.506.443 1.096.694 1.517.307-.466.806-.954.791-1.555-.011-.458-.34-.814-.788-.804-.446.013-.707.415-.697.842"/><path class="st0" d="M135.362 150.435l2.875.064-.207 9.268 3.897.086-.043 1.993-6.774-.15zm7.931.196l7.151.365-.111 2.181-4.278-.218-.116 2.275 2.874.148-.111 2.18-2.874-.146-.119 2.338 4.278.219-.116 2.275-7.15-.365z"/><path transform="rotate(-85.802 152.536 156.816)" class="st0" d="M146.9 155.375h11.265v2.876H146.9z"/><path class="st0" d="M156.869 159.225c.321.985.702 1.69 1.8 1.797.652.063 1.217-.296 1.269-.832.222-2.284-4.925-1.513-4.503-5.844.163-1.686 2.011-3.017 3.967-2.827 1.908.185 3.235 1.395 3.591 2.846l-2.366.725c-.238-.692-.61-1.316-1.437-1.396-.493-.049-1.015.203-1.078.849-.155 1.591 5.001 1.726 4.659 5.24-.224 2.3-2.278 3.612-4.504 3.395-1.924-.187-3.368-1.344-3.858-3.238l2.46-.715zm14.411 1.666c-.325 2.511-1.898 3.583-4.387 3.261-2.585-.336-3.565-1.851-3.254-4.252l.987-7.628 2.854.37-1.004 7.753c-.11.848.082 1.607 1.033 1.73.967.125 1.287-.726 1.395-1.559l.985-7.611 2.378.309-.987 7.627zm2.722-7.375l4.226.691c2.128.348 3.61 1.585 3.252 3.772-.192 1.171-1.126 2.029-2.296 2.255l.992 5.712-2.806-.459-.617-5.041-.946-.155-.787 4.813-2.838-.465 1.82-11.123zm2.097 4.994l.552.09c1.072.175 1.82-.039 1.965-.93.189-1.156-.694-1.397-1.64-1.551l-.474-.078-.403 2.469zm6.927-3.478l7.026 1.374-.421 2.142-4.202-.821-.438 2.236 2.822.551-.419 2.143-2.823-.553-.45 2.298 4.203.821-.438 2.236-7.026-1.374zm17.33 15.545l-1.164-.285-.295-1.147c-.794.554-1.843.672-2.681.466-2.887-.709-3.517-3.241-2.74-6.407.713-2.904 2.363-5.741 5.763-4.907 2.748.674 3.559 2.665 2.964 5.093l-2.701-.663c.239-1.309.342-2.132-.698-2.386-1.18-.289-1.754 1.313-2.252 3.342-.551 2.243-.785 3.668.518 3.988.947.232 1.619-.761 1.788-1.452l-1.398-.342.453-1.844 3.819.937-1.376 5.607zm8.032-9.872c3.26.918 3.452 4.063 2.671 6.835-.782 2.772-2.589 5.355-5.849 4.436-3.26-.918-3.452-4.062-2.671-6.835.782-2.772 2.589-5.355 5.849-4.436m-2.611 9.26c1.277.36 1.698-1.133 2.299-3.266s1.022-3.625-.254-3.985c-1.277-.36-1.697 1.134-2.299 3.267-.602 2.132-1.023 3.625.254 3.984m11.68-6.534c3.229 1.029 3.315 4.179 2.441 6.922-.875 2.744-2.768 5.262-5.997 4.232-3.229-1.029-3.316-4.178-2.441-6.922.875-2.743 2.768-5.262 5.997-4.232m-2.922 9.165c1.265.403 1.736-1.075 2.409-3.185.672-2.111 1.143-3.588-.121-3.991s-1.735 1.075-2.408 3.185c-.673 2.111-1.144 3.587.12 3.991m8.191-7.221l2.935 1.046c3.326 1.186 4.169 3.771 3.061 6.885-1.077 3.026-3.226 5.014-6.507 3.845l-3.266-1.164 3.777-10.612zm-.399 9.699l.301.107c1.897.676 2.713-1.619 3.212-3.019.435-1.223.944-3.224-.848-3.863l-.225-.081-2.44 6.856zm7.888 1.213c.04 1.036.214 1.818 1.241 2.221.61.239 1.251.049 1.448-.452.838-2.136-4.326-2.803-2.737-6.855.618-1.576 2.76-2.351 4.589-1.633 1.786.701 2.732 2.228 2.679 3.72l-2.475.049c-.04-.73-.227-1.433-1.001-1.737-.462-.182-1.033-.082-1.269.521-.584 1.489 4.341 3.03 3.052 6.316-.844 2.15-3.179 2.85-5.262 2.032-1.8-.707-2.874-2.216-2.829-4.17l2.564-.012z"/></svg>